<?xml version="1.0" standalone="no"?>
<!DOCTYPE svg PUBLIC "-//W3C//DTD SVG 20010904//EN"
 "http://www.w3.org/TR/2001/REC-SVG-20010904/DTD/svg10.dtd">
<svg version="1.0" xmlns="http://www.w3.org/2000/svg"
 width="300.000000pt" height="230.000000pt" viewBox="0 0 300.000000 230.000000"
 preserveAspectRatio="xMidYMid meet">

<g transform="translate(0.000000,230.000000) scale(0.100000,-0.100000)"
fill="#000000" stroke="none">
<path d="M805 2261 c-20 -12 -29 -24 -27 -38 3 -19 0 -20 -42 -11 -33 7 -51 6
-68 -3 -15 -9 -52 -12 -109 -10 l-85 3 -28 -37 c-27 -36 -30 -37 -80 -32 -28
3 -73 10 -101 17 -93 21 -132 23 -157 6 -12 -9 -30 -16 -38 -16 -19 0 -60 -40
-60 -58 0 -6 17 -19 37 -27 l36 -15 -27 -29 c-27 -28 -28 -51 -3 -51 7 0 12
-15 12 -37 0 -34 3 -38 30 -43 24 -4 31 -11 33 -33 3 -25 1 -27 -35 -27 -47 0
-97 -34 -73 -50 8 -5 16 -22 17 -37 4 -57 19 -102 40 -127 13 -15 23 -33 23
-41 0 -23 22 -65 34 -65 21 1 46 27 46 49 0 11 5 21 10 21 6 0 22 11 36 25 21
21 29 23 40 14 21 -17 17 -28 -12 -39 -22 -9 -25 -14 -19 -38 17 -67 63 -113
101 -98 13 5 12 10 -5 32 -15 19 -21 43 -22 78 -2 82 -11 111 -35 110 -19 0
-20 3 -11 33 6 18 15 33 20 33 5 0 24 -17 43 -37 19 -21 45 -50 59 -64 16 -17
23 -33 19 -43 -8 -22 -29 -15 -29 9 0 12 -8 19 -23 20 -31 2 -38 13 -23 36 7
12 10 23 7 26 -3 3 -11 -7 -18 -22 -11 -24 -10 -29 7 -41 11 -7 30 -23 43 -36
23 -23 23 -23 38 -4 20 28 41 7 24 -24 -9 -16 -15 -19 -23 -11 -15 15 -29 14
-52 -3 -18 -13 -17 -14 8 -36 21 -18 24 -28 20 -56 -5 -30 0 -39 43 -84 26
-27 52 -57 58 -67 5 -10 28 -36 51 -58 23 -22 47 -50 53 -62 12 -23 104 -73
134 -73 21 0 23 -12 6 -41 -11 -17 -10 -22 6 -35 23 -16 73 -18 110 -4 19 7
35 6 59 -5 17 -7 44 -16 58 -19 23 -5 109 -72 176 -136 12 -12 36 -29 55 -38
18 -10 33 -22 33 -27 0 -6 10 -11 22 -13 13 -2 36 -17 52 -33 16 -16 38 -29
49 -29 13 0 24 -10 31 -30 5 -16 17 -30 25 -30 8 0 28 -11 44 -25 17 -14 35
-25 41 -25 6 0 11 -4 11 -10 0 -5 15 -10 34 -10 20 0 42 -8 52 -17 10 -10 26
-22 37 -28 11 -5 28 -25 38 -44 10 -18 27 -40 38 -48 12 -8 21 -21 21 -28 0
-15 56 -35 78 -27 17 6 15 63 -5 91 -15 22 -15 25 0 36 10 7 17 20 17 28 0 18
70 127 81 127 4 0 16 -16 28 -35 15 -25 27 -35 46 -35 16 0 25 6 25 15 0 8 7
15 15 15 15 0 21 -6 56 -53 11 -15 30 -27 42 -27 31 0 41 -9 66 -62 25 -52 23
-68 -15 -123 -23 -34 -24 -39 -9 -54 18 -20 20 -41 4 -41 -7 0 -9 -11 -5 -33
4 -17 10 -48 13 -67 3 -19 19 -51 34 -71 16 -20 29 -41 29 -46 0 -6 9 -18 20
-28 19 -17 21 -17 41 1 20 18 21 18 34 0 12 -16 22 -18 77 -11 35 4 84 6 111
6 26 0 47 4 47 9 0 6 9 10 20 10 13 0 30 15 47 44 26 43 27 44 92 49 36 3 74
1 85 -5 13 -7 25 -6 40 2 12 6 29 10 37 8 10 -2 15 8 17 35 3 38 4 39 35 33
55 -9 68 10 64 92 -4 65 -7 76 -41 116 -20 24 -36 51 -36 60 0 9 -17 27 -39
40 -21 14 -48 37 -60 52 -19 24 -20 29 -6 36 19 11 20 62 1 77 -10 8 -14 29
-12 62 3 53 16 70 46 62 12 -3 23 3 30 17 6 12 20 30 31 41 29 29 24 66 -18
113 -20 22 -42 43 -47 45 -23 8 -46 35 -46 53 0 11 -7 26 -15 34 -9 10 -15 34
-15 64 0 39 5 54 25 74 31 31 34 82 6 91 -11 3 -25 12 -31 20 -17 21 11 62 41
61 33 -1 35 22 2 35 -15 6 -41 18 -56 26 -37 19 -48 14 -85 -42 -27 -41 -32
-44 -44 -30 -41 51 -49 55 -93 55 -25 0 -45 4 -45 10 0 5 -14 17 -32 26 -29
15 -30 17 -12 27 29 15 29 15 4 42 -19 20 -21 27 -10 39 10 13 7 20 -21 43
-38 33 -56 41 -87 42 -32 1 -93 52 -87 72 3 9 -1 21 -8 28 -8 6 -12 22 -10 35
4 18 0 26 -15 30 -11 4 -27 18 -36 31 -9 14 -34 34 -56 45 -22 11 -40 25 -40
30 0 6 -9 19 -20 30 -22 22 -98 28 -116 10 -8 -8 -19 -7 -37 1 -35 16 -75 4
-89 -26 -6 -14 -17 -25 -23 -25 -7 0 -18 -7 -25 -15 -12 -14 -15 -14 -30 0
-24 21 -35 19 -49 -11 -11 -25 -15 -26 -61 -20 -47 6 -50 5 -64 -22 -19 -37
-65 -48 -108 -26 -19 10 -42 14 -62 10 -38 -7 -98 13 -129 42 -13 12 -30 22
-39 22 -8 0 -33 20 -56 45 -22 25 -47 45 -55 45 -7 0 -30 17 -49 38 -19 20
-51 48 -71 62 -36 25 -77 85 -77 112 0 21 -33 48 -56 47 -10 0 -32 -8 -49 -18z
m95 -51 c0 -8 7 -26 16 -38 15 -21 14 -22 -13 -22 -39 0 -56 -14 -49 -38 6
-16 3 -19 -12 -15 -14 3 -21 -2 -25 -16 -3 -12 -12 -21 -20 -21 -8 0 -28 -7
-43 -15 -16 -8 -36 -15 -45 -15 -34 0 -52 -43 -23 -54 14 -6 15 -4 4 10 -12
13 -11 17 1 25 8 5 21 9 30 9 8 0 24 7 35 15 10 8 27 15 36 15 9 0 23 9 30 19
8 11 23 19 33 18 11 -1 19 3 18 11 -2 6 -4 18 -5 25 -2 7 10 13 30 15 37 4 94
-33 159 -100 20 -21 43 -38 52 -38 9 -1 25 -15 36 -31 11 -17 34 -38 50 -47
47 -24 51 -26 79 -46 17 -12 51 -20 97 -24 38 -2 72 -9 75 -13 7 -12 57 -11
88 1 15 5 31 21 37 34 14 30 30 25 65 -21 24 -31 25 -37 11 -45 -18 -10 -12
-38 8 -38 7 0 16 -6 18 -12 3 -8 6 -6 6 5 1 9 -6 17 -14 17 -8 0 -15 5 -15 10
0 6 5 10 10 10 16 0 12 19 -11 51 -20 29 -20 29 0 29 11 0 29 12 42 28 14 17
23 22 26 15 3 -7 11 -13 19 -13 22 0 78 38 85 57 5 15 20 18 106 20 105 1 112
0 129 -32 6 -11 24 -27 41 -36 45 -23 103 -88 103 -115 0 -13 5 -24 11 -24 6
0 9 -9 6 -20 -4 -15 5 -28 35 -51 22 -18 49 -33 61 -34 12 -1 27 -3 32 -4 6 0
25 -14 43 -29 25 -21 30 -30 20 -40 -9 -9 -7 -16 7 -33 19 -20 19 -21 -4 -38
-26 -20 -21 -41 8 -41 10 0 28 -11 41 -25 18 -19 34 -25 66 -25 37 0 47 -5 66
-30 26 -35 68 -42 68 -10 0 10 6 23 13 27 8 4 16 16 20 26 8 22 24 22 73 -3
30 -15 34 -19 17 -20 -13 0 -24 -8 -28 -20 -3 -11 -11 -20 -16 -20 -21 0 -7
-31 25 -55 39 -30 39 -64 0 -90 -20 -13 -24 -24 -24 -68 0 -31 6 -61 15 -73 8
-10 15 -26 15 -35 0 -16 35 -53 56 -60 18 -6 84 -89 84 -105 0 -8 -11 -26 -25
-40 -14 -14 -25 -29 -25 -34 0 -6 -10 -10 -23 -10 -37 0 -54 -21 -60 -73 -3
-36 0 -53 14 -71 22 -28 14 -59 -16 -64 -11 -2 -60 -8 -110 -13 -82 -9 -194
-37 -153 -39 9 0 27 4 40 10 13 5 67 13 121 18 l99 8 26 -38 c15 -20 42 -45
60 -55 17 -10 32 -24 32 -31 0 -8 18 -36 40 -62 26 -31 39 -57 39 -76 0 -16 3
-46 7 -66 6 -34 4 -38 -19 -43 -14 -4 -31 -4 -37 0 -5 3 -19 3 -30 0 -15 -5
-20 -15 -20 -40 0 -25 -4 -33 -14 -29 -8 3 -16 1 -19 -3 -3 -5 -49 -8 -102 -6
l-96 3 -27 -45 c-15 -24 -34 -45 -43 -45 -9 0 -22 -6 -28 -14 -6 -7 -22 -11
-36 -9 -13 3 -54 0 -91 -6 -57 -10 -69 -10 -83 4 -21 18 -42 19 -60 3 -11 -11
-15 -9 -25 6 -6 10 -25 38 -42 60 -32 44 -55 148 -34 161 15 9 12 32 -7 51
-14 13 -15 18 -5 22 7 2 17 15 22 27 6 16 19 25 37 27 24 3 29 8 33 40 4 28
14 44 39 63 40 28 58 31 85 10 27 -20 36 -19 36 5 0 12 10 25 23 30 18 8 19
10 2 7 -11 -1 -24 -12 -31 -24 -10 -20 -13 -21 -30 -8 -28 21 -46 18 -92 -15
-36 -25 -42 -36 -42 -65 0 -28 -4 -35 -20 -35 -16 0 -20 7 -20 34 0 19 -4 37
-9 41 -5 3 -12 19 -16 35 -7 34 -39 60 -71 60 -15 0 -29 12 -43 35 -11 19 -24
35 -29 35 -5 0 -7 14 -4 31 3 20 12 33 27 39 28 11 65 57 65 81 0 15 -7 19
-33 19 -20 0 -47 10 -67 25 -19 14 -41 23 -50 20 -9 -3 -33 4 -55 15 -22 11
-45 20 -51 20 -7 0 -14 10 -16 22 -2 16 -14 26 -38 34 -25 8 -40 22 -53 49
-21 42 -18 51 11 36 35 -19 52 -4 52 46 0 40 -3 45 -32 58 -32 13 -62 48 -52
58 3 3 21 3 39 0 39 -6 85 3 85 17 0 5 -15 17 -32 26 -18 9 -45 30 -59 45 -15
16 -34 29 -43 29 -12 0 -16 10 -16 38 0 38 39 134 59 146 6 4 11 16 11 28 0
18 -4 19 -35 14 -35 -7 -35 -6 -34 26 3 65 7 71 50 65 34 -4 39 -2 39 14 0 21
-25 34 -82 44 -44 7 -55 19 -37 43 11 14 9 14 -7 -1 -19 -18 -19 -19 5 -38 13
-10 36 -19 51 -19 37 0 60 -9 60 -24 0 -8 -11 -11 -30 -8 -38 5 -60 -12 -60
-50 0 -34 -24 -63 -61 -71 -23 -6 -28 -2 -45 36 -16 36 -24 42 -50 44 -18 0
-41 6 -52 12 -26 14 -69 14 -77 0 -5 -7 -14 -4 -26 7 -18 16 -20 16 -37 1 -17
-15 -22 -15 -72 4 -29 11 -59 18 -66 15 -7 -3 -16 0 -20 5 -4 7 -28 8 -64 4
-51 -6 -60 -4 -78 15 -17 19 -23 20 -42 10 -13 -7 -37 -10 -56 -7 -36 6 -55
-9 -73 -55 -9 -25 -12 -26 -41 -17 -17 6 -37 24 -45 39 -17 33 -44 44 -83 35
-26 -5 -27 -7 -30 -89 -3 -78 -1 -85 18 -91 12 -4 26 -19 33 -33 6 -15 20 -37
30 -49 11 -12 26 -46 33 -75 11 -41 22 -60 51 -83 21 -16 52 -45 68 -64 102
-116 140 -152 176 -161 35 -10 38 -13 33 -40 -8 -38 23 -81 75 -105 30 -13 41
-24 41 -40 0 -32 -39 -22 -81 21 -18 19 -38 34 -44 34 -6 0 -24 14 -41 31 -46
50 -105 89 -133 89 -14 0 -34 7 -44 15 -16 11 -25 11 -55 1 -21 -8 -52 -11
-70 -8 -34 5 -36 9 -17 54 7 18 -12 31 -67 42 -15 4 -44 23 -65 44 -89 89
-126 132 -119 139 4 4 31 7 61 7 30 -1 52 3 49 7 -3 5 -11 9 -18 9 -7 0 -22 8
-34 18 -44 36 -66 52 -74 52 -4 0 -19 25 -33 55 -24 53 -24 57 -9 86 14 28 14
32 0 48 -9 10 -16 24 -16 31 0 13 -60 69 -109 102 -45 31 -57 24 -82 -46 -17
-46 -31 -69 -52 -81 -20 -12 -27 -23 -24 -36 3 -10 4 -19 2 -19 -2 0 -10 -3
-19 -6 -11 -4 -18 5 -25 33 -6 21 -20 49 -31 61 -11 11 -20 32 -20 45 0 12 -4
27 -9 32 -5 6 -11 29 -14 51 l-5 42 27 -14 c14 -8 35 -14 46 -14 12 0 26 -5
32 -11 9 -9 18 -8 37 5 14 9 33 17 43 17 16 1 16 2 1 6 -9 2 -29 -4 -43 -13
-16 -10 -29 -14 -33 -8 -4 6 -24 14 -45 19 -50 13 -48 29 3 33 36 3 40 6 40
30 0 36 -10 49 -44 58 -25 6 -27 10 -24 40 3 28 1 34 -14 34 -25 0 -22 15 7
34 35 23 31 44 -11 62 -39 16 -40 33 -3 51 68 32 79 35 118 29 23 -3 60 -9 83
-12 24 -3 47 -10 52 -15 6 -5 29 -9 53 -9 35 0 50 6 82 35 38 34 40 35 123 35
48 0 89 5 95 11 11 11 67 8 112 -6 22 -7 23 -6 17 22 -6 26 -3 31 26 45 31 15
34 15 56 -5 12 -11 22 -28 22 -37z m223 -579 c78 2 121 -4 171 -25 36 -15 40
-15 58 0 17 16 19 16 37 0 16 -15 22 -15 39 -5 16 10 28 10 63 -1 23 -8 51
-14 62 -15 14 0 24 -11 31 -32 17 -49 29 -57 68 -45 54 16 107 21 114 11 3 -6
-2 -19 -11 -29 -34 -38 -64 -118 -58 -155 3 -21 11 -35 20 -35 8 0 25 -11 38
-24 14 -14 38 -33 55 -42 44 -26 37 -37 -19 -32 -28 3 -55 2 -61 -2 -17 -10
15 -57 51 -76 24 -12 29 -21 29 -51 l0 -36 -39 7 c-30 4 -40 2 -45 -10 -4 -11
-18 -14 -51 -13 -24 2 -48 0 -51 -4 -4 -3 21 -5 54 -4 59 3 61 2 69 -28 7 -24
17 -33 51 -43 30 -10 42 -19 42 -33 0 -22 102 -74 127 -65 9 4 29 -4 49 -19
18 -14 46 -25 63 -25 52 0 34 -48 -30 -80 -22 -12 -37 -25 -34 -30 9 -14 -4
-50 -17 -50 -6 0 -16 -7 -23 -16 -11 -15 -14 -15 -33 7 -12 12 -22 31 -22 41
0 27 -36 22 -57 -8 -10 -14 -28 -38 -40 -54 -13 -15 -23 -37 -23 -48 0 -11
-10 -26 -22 -35 -23 -14 -23 -15 -5 -45 22 -39 23 -87 1 -78 -9 3 -20 6 -25 6
-5 0 -14 11 -19 25 -5 14 -15 25 -22 25 -7 0 -19 13 -26 30 -19 42 -110 113
-140 107 -15 -3 -26 2 -32 14 -15 26 -12 49 5 49 8 0 15 5 15 11 0 5 -5 7 -10
4 -6 -4 -22 0 -35 9 -13 9 -35 16 -48 16 -13 0 -36 13 -52 30 -16 16 -34 30
-40 30 -7 0 -20 9 -30 20 -10 11 -28 20 -41 20 -18 0 -23 6 -26 33 -2 25 -10
36 -37 49 -18 9 -44 27 -58 40 -20 19 -23 29 -18 57 7 37 -4 51 -41 51 -21 0
-164 139 -164 159 0 5 -24 25 -54 46 -48 33 -56 43 -66 87 -7 27 -22 61 -35
76 -12 15 -25 40 -29 55 -4 17 -16 31 -32 37 -25 10 -25 13 -22 85 2 62 6 76
21 81 30 10 63 -4 75 -31 12 -26 84 -65 89 -48 2 5 12 24 22 43 16 31 23 35
53 32 18 -2 45 1 58 6 20 7 28 5 38 -10 11 -16 25 -19 75 -17z m-833 -14 c0
-4 -10 -3 -21 4 -17 9 -19 13 -8 20 13 8 28 -5 29 -24z m126 -4 c-7 -7 -46 16
-46 28 0 5 11 2 25 -7 14 -9 24 -19 21 -21z m-99 -145 c23 -25 10 -32 -24 -14
-19 9 -33 27 -41 52 -12 40 -9 54 13 54 7 0 17 8 21 18 6 12 10 1 12 -38 2
-32 10 -62 19 -72z m91 37 c7 -14 12 -28 12 -30 0 -12 -22 -3 -45 17 -19 16
-22 24 -13 30 22 13 34 9 46 -17z m32 -64 c17 -33 11 -47 -10 -21 -11 14 -20
28 -20 33 0 14 20 7 30 -12z m43 -71 c28 -14 35 -49 11 -57 -18 -6 -104 83
-104 108 0 22 1 22 33 -7 17 -17 45 -36 60 -44z m67 -40 c0 -5 -7 -10 -15 -10
-8 0 -15 5 -15 10 0 6 7 10 15 10 8 0 15 -4 15 -10z m771 -562 c16 -13 48 -38
70 -56 23 -17 45 -30 50 -27 17 11 49 -16 49 -40 0 -14 -4 -25 -10 -25 -5 0
-10 4 -10 9 0 5 -16 16 -35 25 -19 9 -39 26 -45 36 -6 11 -28 29 -49 40 -21
10 -41 26 -44 34 -3 8 -18 16 -34 19 l-28 4 28 2 c17 0 41 -9 58 -21z"/>
<path d="M705 1933 c4 -31 2 -33 -24 -33 -16 0 -44 -7 -62 -16 -21 -9 -25 -13
-9 -8 14 3 42 8 63 11 45 6 49 11 37 49 l-10 29 5 -32z" id="RS" name="Serbia"/>
<path d="M574 1858 c3 -10 9 -25 12 -33 4 -10 0 -15 -11 -15 -12 0 -15 -5 -10
-17 15 -37 11 -48 -15 -45 -14 2 -36 10 -49 19 -12 8 -32 12 -43 10 -29 -8
-65 8 -73 32 -9 30 -37 26 -60 -9 -17 -25 -25 -29 -50 -25 l-30 5 29 -12 c28
-10 32 -9 59 23 27 32 29 33 42 15 8 -10 16 -23 18 -29 1 -5 24 -11 49 -11 25
-1 52 -7 60 -13 12 -10 46 -17 76 -14 15 1 16 33 0 49 -9 9 -8 12 5 12 21 0
21 17 1 50 -8 14 -13 17 -10 8z"/>
<path d="M2468 553 c7 -3 16 -2 19 1 4 3 -2 6 -13 5 -11 0 -14 -3 -6 -6z"/>
<path d="M1630 988 c0 -9 13 -20 30 -27 17 -5 30 -15 30 -20 0 -15 -56 -14
-80 1 -16 10 -24 9 -47 -8 -22 -17 -29 -30 -31 -67 -2 -35 -8 -47 -23 -52 -12
-4 -19 -15 -19 -32 0 -25 29 -97 36 -90 3 2 -2 17 -11 33 -20 40 -19 67 5 82
14 9 20 23 20 50 0 48 40 93 64 73 22 -18 90 -10 94 11 2 12 -5 19 -22 24 -15
3 -31 14 -36 23 -9 15 -9 15 -10 -1z"/>
</g>
</svg>
